ISO-10303-21;
HEADER;
FILE_DESCRIPTION (( 'STEP AP214' ),
    '1' );
FILE_NAME ('4, BackPiece.STEP',
    '2026-08-17T14:50:08',
    ( '' ),
    ( '' ),
    'SwSTEP 2.0',
    'SolidWorks 2026',
    '' );
FILE_SCHEMA (( 'AUTOMOTIVE_DESIGN' ));
ENDSEC;

DATA;
#1 = EDGE_CURVE ( 'NONE', #173, #198, #268, .T. ) ;
#2 = DIRECTION ( 'NONE',  ( -1.000000000000000000, 0.000000000000000000, 0.000000000000000000 ) ) ;
#3 = DIRECTION ( 'NONE',  ( -1.000000000000000000, 0.000000000000000000, 0.000000000000000000 ) ) ;
#4 = ORIENTED_EDGE ( 'NONE', *, *, #286, .F. ) ;
#5 = CARTESIAN_POINT ( 'NONE',  ( -641.6881233438613208, 924.2151604516615180, 0.2999999999999583000 ) ) ;
#6 = CARTESIAN_POINT ( 'NONE',  ( -599.4803299049344787, 884.3151604516438056, 7.212489168102933057 ) ) ;
#7 = AXIS2_PLACEMENT_3D ( 'NONE', #5, #443, #44 ) ;
#8 = ORIENTED_EDGE ( 'NONE', *, *, #64, .F. ) ;
#9 =( NAMED_UNIT ( * ) PLANE_ANGLE_UNIT ( ) SI_UNIT ( $, .RADIAN. ) );
#10 = FACE_OUTER_BOUND ( 'NONE', #135, .T. ) ;
#11 = EDGE_CURVE ( 'NONE', #12, #492, #125, .T. ) ;
#12 = VERTEX_POINT ( 'NONE', #558 ) ;
#13 = CARTESIAN_POINT ( 'NONE',  ( -731.6881233438608660, 839.2106594387055338, 0.2999999999999583000 ) ) ;
#14 = FACE_OUTER_BOUND ( 'NONE', #164, .T. ) ;
#15 = ORIENTED_EDGE ( 'NONE', *, *, #250, .F. ) ;
#16 = DIRECTION ( 'NONE',  ( 7.888609052210118054E-31, 7.888609052210118054E-31, -1.000000000000000000 ) ) ;
#17 = DIRECTION ( 'NONE',  ( 0.000000000000000000, 0.000000000000000000, 1.000000000000000000 ) ) ;
#18 = DIRECTION ( 'NONE',  ( 0.000000000000000000, 0.000000000000000000, 1.000000000000000000 ) ) ;
#19 = CARTESIAN_POINT ( 'NONE',  ( -641.6881233438617755, 839.2106594387055338, 0.2999999999999583000 ) ) ;
#20 = EDGE_CURVE ( 'NONE', #342, #571, #482, .T. ) ;
#21 = CARTESIAN_POINT ( 'NONE',  ( -596.6143969440687442, 904.3151604516438056, -9.700000000000041922 ) ) ;
#22 = EDGE_LOOP ( 'NONE', ( #408, #335 ) ) ;
#23 = FACE_BOUND ( 'NONE', #469, .T. ) ;
#24 = ORIENTED_EDGE ( 'NONE', *, *, #20, .T. ) ;
#25 = FACE_OUTER_BOUND ( 'NONE', #367, .T. ) ;
#26 = ORIENTED_EDGE ( 'NONE', *, *, #495, .T. ) ;
#27 = VECTOR ( 'NONE', #30, 1000.000000000000000 ) ;
#28 =( LENGTH_UNIT ( ) NAMED_UNIT ( * ) SI_UNIT ( .MILLI., .METRE. ) );
#29 = VECTOR ( 'NONE', #309, 1000.000000000000000 ) ;
#30 = DIRECTION ( 'NONE',  ( -6.223015277861141707E-61, 1.000000000000000000, 7.888609052210118054E-31 ) ) ;
#31 = EDGE_CURVE ( 'NONE', #210, #540, #425, .T. ) ;
#32 = ORIENTED_EDGE ( 'NONE', *, *, #223, .F. ) ;
#33 = LINE ( 'NONE', #279, #128 ) ;
#34 = ORIENTED_EDGE ( 'NONE', *, *, #286, .T. ) ;
#35 = STYLED_ITEM ( 'NONE', ( #622 ), #444 ) ;
#36 = DIRECTION ( 'NONE',  ( 7.888609052210118054E-31, 7.888609052210118054E-31, -1.000000000000000000 ) ) ;
#37 = VECTOR ( 'NONE', #322, 1000.000000000000000 ) ;
#38 = EDGE_CURVE ( 'NONE', #146, #243, #543, .T. ) ;
#39 = VECTOR ( 'NONE', #71, 1000.000000000000000 ) ;
#40 = CIRCLE ( 'NONE', #352, 2.550000000000052225 ) ;
#41 = EDGE_LOOP ( 'NONE', ( #237, #339, #439, #572 ) ) ;
#42 = CARTESIAN_POINT ( 'NONE',  ( -776.7618497436363896, 904.3151604516434645, -9.700000000000041922 ) ) ;
#43 = ORIENTED_EDGE ( 'NONE', *, *, #427, .F. ) ;
#44 = DIRECTION ( 'NONE',  ( 1.000000000000000000, -6.223015277861141707E-61, 7.888609052210118054E-31 ) ) ;
#45 = ORIENTED_EDGE ( 'NONE', *, *, #411, .T. ) ;
#46 = DIRECTION ( 'NONE',  ( 0.000000000000000000, 0.000000000000000000, 1.000000000000000000 ) ) ;
#47 = CARTESIAN_POINT ( 'NONE',  ( -641.6881233438617755, 989.2151604516615180, 0.000000000000000000 ) ) ;
#48 = VERTEX_POINT ( 'NONE', #134 ) ;
#49 = DIRECTION ( 'NONE',  ( 0.000000000000000000, 0.000000000000000000, -1.000000000000000000 ) ) ;
#50 = VERTEX_POINT ( 'NONE', #421 ) ;
#51 = FACE_OUTER_BOUND ( 'NONE', #529, .T. ) ;
#52 = CARTESIAN_POINT ( 'NONE',  ( -599.1643969440688124, 904.3151604516438056, -9.700000000000041922 ) ) ;
#53 = ORIENTED_EDGE ( 'NONE', *, *, #554, .F. ) ;
#54 = FACE_BOUND ( 'NONE', #143, .T. ) ;
#55 = EDGE_CURVE ( 'NONE', #146, #520, #366, .T. ) ;
#56 = AXIS2_PLACEMENT_3D ( 'NONE', #197, #484, #590 ) ;
#57 = VERTEX_POINT ( 'NONE', #574 ) ;
#58 = CYLINDRICAL_SURFACE ( 'NONE', #452, 10.00000000000000000 ) ;
#59 = LINE ( 'NONE', #407, #39 ) ;
#60 = EDGE_LOOP ( 'NONE', ( #377, #232, #4, #472 ) ) ;
#61 = LINE ( 'NONE', #172, #412 ) ;
#62 = DIRECTION ( 'NONE',  ( 7.888609052210174106E-31, 2.366582715663032614E-30, -1.000000000000000000 ) ) ;
#63 = ORIENTED_EDGE ( 'NONE', *, *, #258, .T. ) ;
#64 = EDGE_CURVE ( 'NONE', #571, #342, #274, .T. ) ;
#65 = FACE_OUTER_BOUND ( 'NONE', #385, .T. ) ;
#66 = VERTEX_POINT ( 'NONE', #372 ) ;
#67 = TOROIDAL_SURFACE ( 'NONE', #628, 55.00450101295582783, 10.00000000000000000 ) ;
#68 = AXIS2_PLACEMENT_3D ( 'NONE', #52, #106, #391 ) ;
#69 = AXIS2_PLACEMENT_3D ( 'NONE', #364, #113, #511 ) ;
#70 = CIRCLE ( 'NONE', #432, 2.550000000000052225 ) ;
#71 = DIRECTION ( 'NONE',  ( 7.888609052210118054E-31, 7.888609052210118054E-31, -1.000000000000000000 ) ) ;
#72 = ORIENTED_EDGE ( 'NONE', *, *, #336, .F. ) ;
#73 = ORIENTED_EDGE ( 'NONE', *, *, #365, .T. ) ;
#74 = DIRECTION ( 'NONE',  ( 7.888609052210118054E-31, 7.888609052210118054E-31, -1.000000000000000000 ) ) ;
#75 = ORIENTED_EDGE ( 'NONE', *, *, #119, .F. ) ;
#76 = ADVANCED_FACE ( 'NONE', ( #603 ), #512, .T. ) ;
#77 = CARTESIAN_POINT ( 'NONE',  ( -786.6926243568171913, 924.2151604516615180, -9.700000000000041922 ) ) ;
#78 = EDGE_LOOP ( 'NONE', ( #194, #75, #73, #43 ) ) ;
#79 = AXIS2_PLACEMENT_3D ( 'NONE', #245, #497, #486 ) ;
#80 = CARTESIAN_POINT ( 'NONE',  ( -776.7618497436363896, 904.3151604516434645, 7.212489168102933057 ) ) ;
#81 = ORIENTED_EDGE ( 'NONE', *, *, #623, .T. ) ;
#82 = CARTESIAN_POINT ( 'NONE',  ( -731.6881233438613208, 894.2151604516614043, 0.2999999999999583000 ) ) ;
#83 = ORIENTED_EDGE ( 'NONE', *, *, #250, .T. ) ;
#84 = EDGE_CURVE ( 'NONE', #213, #111, #630, .T. ) ;
#85 = DIRECTION ( 'NONE',  ( 7.888609052210118054E-31, 7.888609052210118054E-31, -1.000000000000000000 ) ) ;
#86 = ORIENTED_EDGE ( 'NONE', *, *, #119, .T. ) ;
#87 = CARTESIAN_POINT ( 'NONE',  ( -641.6881233438617755, 989.2151604516615180, 0.000000000000000000 ) ) ;
#88 = TOROIDAL_SURFACE ( 'NONE', #79, 55.00450101295582783, 10.00000000000000000 ) ;
#89 = EDGE_LOOP ( 'NONE', ( #34, #273, #549, #631 ) ) ;
#90 = VERTEX_POINT ( 'NONE', #490 ) ;
#91 = CARTESIAN_POINT ( 'NONE',  ( -602.0303299049344332, 884.3151604516438056, -9.700000000000041922 ) ) ;
#92 = CARTESIAN_POINT ( 'NONE',  ( -731.6881233438613208, 894.2151604516614043, -9.700000000000041922 ) ) ;
#93 = EDGE_LOOP ( 'NONE', ( #246, #369 ) ) ;
#94 = FACE_OUTER_BOUND ( 'NONE', #565, .T. ) ;
#95 = DIRECTION ( 'NONE',  ( -1.000000000000000000, 0.000000000000000000, 0.000000000000000000 ) ) ;
#96 = ADVANCED_FACE ( 'NONE', ( #251 ), #264, .T. ) ;
#97 = ORIENTED_EDGE ( 'NONE', *, *, #448, .F. ) ;
#98 = CARTESIAN_POINT ( 'NONE',  ( -586.6836223309054503, 894.2151604516619727, -9.700000000000041922 ) ) ;
#99 = AXIS2_PLACEMENT_3D ( 'NONE', #277, #85, #383 ) ;
#100 = CIRCLE ( 'NONE', #428, 64.99999999999994316 ) ;
#101 = FACE_OUTER_BOUND ( 'NONE', #188, .T. ) ;
#102 = CIRCLE ( 'NONE', #68, 2.550000000000052225 ) ;
#103 = CIRCLE ( 'NONE', #545, 10.00000000000000888 ) ;
#104 = AXIS2_PLACEMENT_3D ( 'NONE', #6, #294, #205 ) ;
#105 = DIRECTION ( 'NONE',  ( -1.000000000000000000, 0.000000000000000000, 0.000000000000000000 ) ) ;
#106 = DIRECTION ( 'NONE',  ( 7.888609052210118054E-31, 7.888609052210118054E-31, -1.000000000000000000 ) ) ;
#107 = ORIENTED_EDGE ( 'NONE', *, *, #544, .T. ) ;
#108 = EDGE_CURVE ( 'NONE', #540, #173, #361, .T. ) ;
#109 = CARTESIAN_POINT ( 'NONE',  ( -731.6881233438613208, 924.2151604516615180, -9.700000000000041922 ) ) ;
#110 = DIRECTION ( 'NONE',  ( 1.110722962469605239E-14, -1.000000000000000000, 0.000000000000000000 ) ) ;
#111 = VERTEX_POINT ( 'NONE', #47 ) ;
#112 = DIRECTION ( 'NONE',  ( -1.000000000000000000, 0.000000000000000000, 0.000000000000000000 ) ) ;
#113 = DIRECTION ( 'NONE',  ( -7.888609052210118054E-31, -7.888609052210118054E-31, 1.000000000000000000 ) ) ;
#114 = UNCERTAINTY_MEASURE_WITH_UNIT (LENGTH_MEASURE( 1.000000000000000082E-05 ), #28, 'distance_accuracy_value', 'NONE');
#115 = ORIENTED_EDGE ( 'NONE', *, *, #576, .F. ) ;
#116 = TOROIDAL_SURFACE ( 'NONE', #69, 55.00450101295582783, 10.00000000000000000 ) ;
#117 = LINE ( 'NONE', #312, #380 ) ;
#118 = LINE ( 'NONE', #413, #29 ) ;
#119 = EDGE_CURVE ( 'NONE', #292, #278, #610, .T. ) ;
#120 = ORIENTED_EDGE ( 'NONE', *, *, #441, .F. ) ;
#121 = CYLINDRICAL_SURFACE ( 'NONE', #227, 10.00000000000000000 ) ;
#122 = CARTESIAN_POINT ( 'NONE',  ( -641.6881233438617755, 839.2106594387055338, -9.700000000000041922 ) ) ;
#123 = DIRECTION ( 'NONE',  ( 1.000000000000000000, 0.000000000000000000, 0.000000000000000000 ) ) ;
#124 = FACE_BOUND ( 'NONE', #22, .T. ) ;
#125 = LINE ( 'NONE', #229, #37 ) ;
#126 = VERTEX_POINT ( 'NONE', #42 ) ;
#127 = AXIS2_PLACEMENT_3D ( 'NONE', #267, #313, #262 ) ;
#128 = VECTOR ( 'NONE', #36, 1000.000000000000000 ) ;
#129 = CARTESIAN_POINT ( 'NONE',  ( -773.8959167827705414, 884.3151604516434645, -9.700000000000041922 ) ) ;
#130 = CARTESIAN_POINT ( 'NONE',  ( -786.6926243568171913, 924.2151604516609495, 0.2999999999999583000 ) ) ;
#131 = ADVANCED_FACE ( 'NONE', ( #388 ), #88, .T. ) ;
#132 = DIRECTION ( 'NONE',  ( 0.000000000000000000, 0.000000000000000000, 1.000000000000000000 ) ) ;
#133 = PRODUCT_DEFINITION_SHAPE ( 'NONE', 'NONE',  #300 ) ;
#134 = CARTESIAN_POINT ( 'NONE',  ( -596.9303299049345242, 884.3151604516438056, -9.700000000000041922 ) ) ;
#135 = EDGE_LOOP ( 'NONE', ( #534, #288, #426, #483, #63, #597, #221, #175 ) ) ;
#136 = CARTESIAN_POINT ( 'NONE',  ( -599.1643969440688124, 904.3151604516438056, -9.700000000000041922 ) ) ;
#137 = AXIS2_PLACEMENT_3D ( 'NONE', #141, #132, #376 ) ;
#138 = CIRCLE ( 'NONE', #619, 64.99999999999994316 ) ;
#139 = EDGE_CURVE ( 'NONE', #154, #126, #525, .T. ) ;
#140 = ORIENTED_EDGE ( 'NONE', *, *, #331, .T. ) ;
#141 = CARTESIAN_POINT ( 'NONE',  ( -774.2118497436363214, 904.3151604516434645, 0.000000000000000000 ) ) ;
#142 = EDGE_CURVE ( 'NONE', #243, #146, #414, .T. ) ;
#143 = EDGE_LOOP ( 'NONE', ( #584, #120 ) ) ;
#144 = CARTESIAN_POINT ( 'NONE',  ( -599.1643969440688124, 904.3151604516438056, 7.212489168102933057 ) ) ;
#145 = DIRECTION ( 'NONE',  ( 0.000000000000000000, -1.000000000000000000, 0.000000000000000000 ) ) ;
#146 = VERTEX_POINT ( 'NONE', #351 ) ;
#147 = CIRCLE ( 'NONE', #99, 2.550000000000052225 ) ;
#148 = DIRECTION ( 'NONE',  ( -1.000000000000000000, 0.000000000000000000, 0.000000000000000000 ) ) ;
#149 = AXIS2_PLACEMENT_3D ( 'NONE', #242, #297, #546 ) ;
#150 = DIRECTION ( 'NONE',  ( -1.000000000000000000, 0.000000000000000000, 0.000000000000000000 ) ) ;
#151 = EDGE_LOOP ( 'NONE', ( #83, #356, #276, #405 ) ) ;
#152 = ADVANCED_FACE ( 'NONE', ( #101 ), #434, .F. ) ;
#153 = LINE ( 'NONE', #447, #429 ) ;
#154 = VERTEX_POINT ( 'NONE', #155 ) ;
#155 = CARTESIAN_POINT ( 'NONE',  ( -771.6618497436362532, 904.3151604516434645, -9.700000000000041922 ) ) ;
#156 = DIRECTION ( 'NONE',  ( 0.000000000000000000, 0.000000000000000000, 1.000000000000000000 ) ) ;
#157 = ORIENTED_EDGE ( 'NONE', *, *, #424, .T. ) ;
#158 = CYLINDRICAL_SURFACE ( 'NONE', #185, 2.550000000000052225 ) ;
#159 = CARTESIAN_POINT ( 'NONE',  ( -786.6926243568171913, 894.2151604516619727, 0.2999999999999583000 ) ) ;
#160 = AXIS2_PLACEMENT_3D ( 'NONE', #343, #302, #166 ) ;
#161 = CIRCLE ( 'NONE', #171, 55.00450101295584204 ) ;
#162 = ADVANCED_FACE ( 'NONE', ( #578 ), #625, .T. ) ;
#163 = AXIS2_PLACEMENT_3D ( 'NONE', #370, #110, #453 ) ;
#164 = EDGE_LOOP ( 'NONE', ( #530, #140, #374, #445 ) ) ;
#165 = DIRECTION ( 'NONE',  ( -1.110223024625155594E-14, 1.000000000000000000, 0.000000000000000000 ) ) ;
#166 = DIRECTION ( 'NONE',  ( -1.000000000000000000, 0.000000000000000000, 0.000000000000000000 ) ) ;
#167 = ORIENTED_EDGE ( 'NONE', *, *, #139, .F. ) ;
#168 = DIRECTION ( 'NONE',  ( 0.000000000000000000, -1.000000000000000000, 0.000000000000000000 ) ) ;
#169 = CARTESIAN_POINT ( 'NONE',  ( -771.3459167827705869, 884.3151604516434645, 0.000000000000000000 ) ) ;
#170 = DIRECTION ( 'NONE',  ( -1.000000000000000000, 0.000000000000000000, 0.000000000000000000 ) ) ;
#171 = AXIS2_PLACEMENT_3D ( 'NONE', #92, #395, #290 ) ;
#172 = CARTESIAN_POINT ( 'NONE',  ( -596.6143969440687442, 904.3151604516438056, 7.212489168102933057 ) ) ;
#173 = VERTEX_POINT ( 'NONE', #493 ) ;
#174 = CARTESIAN_POINT ( 'NONE',  ( -731.6881233438613208, 894.2151604516614043, 0.000000000000000000 ) ) ;
#175 = ORIENTED_EDGE ( 'NONE', *, *, #11, .T. ) ;
#176 = CARTESIAN_POINT ( 'NONE',  ( -586.6836223309054503, 924.2151604516610632, 0.2999999999999583000 ) ) ;
#177 = DIRECTION ( 'NONE',  ( 7.888609052210118054E-31, 7.888609052210118054E-31, -1.000000000000000000 ) ) ;
#178 = EDGE_CURVE ( 'NONE', #433, #50, #502, .T. ) ;
#179 = CIRCLE ( 'NONE', #228, 2.550000000000052225 ) ;
#180 = DIRECTION ( 'NONE',  ( -1.000000000000000000, 0.000000000000000000, 0.000000000000000000 ) ) ;
#181 = CARTESIAN_POINT ( 'NONE',  ( -599.4803299049344787, 884.3151604516438056, 0.000000000000000000 ) ) ;
#182 = DIRECTION ( 'NONE',  ( 0.000000000000000000, 0.000000000000000000, 1.000000000000000000 ) ) ;
#183 = FACE_OUTER_BOUND ( 'NONE', #41, .T. ) ;
#184 = EDGE_CURVE ( 'NONE', #249, #345, #102, .T. ) ;
#185 = AXIS2_PLACEMENT_3D ( 'NONE', #489, #535, #105 ) ;
#186 = ORIENTED_EDGE ( 'NONE', *, *, #64, .T. ) ;
#187 = CARTESIAN_POINT ( 'NONE',  ( -731.6881233438607524, 989.2151604516615180, 0.000000000000000000 ) ) ;
#188 = EDGE_LOOP ( 'NONE', ( #282, #468, #306, #329 ) ) ;
#189 =( NAMED_UNIT ( * ) PLANE_ANGLE_UNIT ( ) SI_UNIT ( $, .RADIAN. ) );
#190 = ADVANCED_BREP_SHAPE_REPRESENTATION ( '4, BackPiece', ( #444, #308 ), #609 ) ;
#191 = ORIENTED_EDGE ( 'NONE', *, *, #295, .F. ) ;
#192 = CARTESIAN_POINT ( 'NONE',  ( -774.2118497436363214, 904.3151604516434645, 7.212489168102933057 ) ) ;
#193 = DIRECTION ( 'NONE',  ( 7.888609052210118054E-31, 7.888609052210118054E-31, -1.000000000000000000 ) ) ;
#194 = ORIENTED_EDGE ( 'NONE', *, *, #554, .T. ) ;
#195 = EDGE_CURVE ( 'NONE', #492, #111, #580, .T. ) ;
#196 = DIRECTION ( 'NONE',  ( 1.000000000000000000, 0.000000000000000000, 0.000000000000000000 ) ) ;
#197 = CARTESIAN_POINT ( 'NONE',  ( -774.2118497436363214, 904.3151604516434645, -9.700000000000041922 ) ) ;
#198 = VERTEX_POINT ( 'NONE', #537 ) ;
#199 = DIRECTION ( 'NONE',  ( 1.000000000000000000, -0.000000000000000000, -0.000000000000000000 ) ) ;
#200 = CARTESIAN_POINT ( 'NONE',  ( 0.000000000000000000, 0.000000000000000000, 0.000000000000000000 ) ) ;
#201 = CYLINDRICAL_SURFACE ( 'NONE', #600, 2.550000000000052225 ) ;
#202 = EDGE_CURVE ( 'NONE', #66, #154, #153, .T. ) ;
#203 = PRODUCT_CONTEXT ( 'NONE', #477, 'mechanical' ) ;
#204 = FACE_OUTER_BOUND ( 'NONE', #260, .T. ) ;
#205 = DIRECTION ( 'NONE',  ( -1.000000000000000000, 0.000000000000000000, 0.000000000000000000 ) ) ;
#206 = AXIS2_PLACEMENT_3D ( 'NONE', #612, #18, #316 ) ;
#207 = ORIENTED_EDGE ( 'NONE', *, *, #108, .F. ) ;
#208 = DIRECTION ( 'NONE',  ( 1.000000000000000000, 0.000000000000000000, 0.000000000000000000 ) ) ;
#209 = FACE_BOUND ( 'NONE', #595, .T. ) ;
#210 = VERTEX_POINT ( 'NONE', #436 ) ;
#211 =( LENGTH_UNIT ( ) NAMED_UNIT ( * ) SI_UNIT ( .MILLI., .METRE. ) );
#212 = CARTESIAN_POINT ( 'NONE',  ( -586.6836223309054503, 894.2151604516619727, 0.2999999999999583000 ) ) ;
#213 = VERTEX_POINT ( 'NONE', #594 ) ;
#214 = EDGE_CURVE ( 'NONE', #48, #520, #591, .T. ) ;
#215 = DIRECTION ( 'NONE',  ( 1.000000000000000000, 1.110722962469605239E-14, 0.000000000000000000 ) ) ;
#216 = CARTESIAN_POINT ( 'NONE',  ( -596.9303299049345242, 884.3151604516438056, 0.000000000000000000 ) ) ;
#217 = MECHANICAL_DESIGN_GEOMETRIC_PRESENTATION_REPRESENTATION (  '', ( #35 ), #532 ) ;
#218 = CARTESIAN_POINT ( 'NONE',  ( -641.6881233438617755, 979.2196614646173884, 0.2999999999999583000 ) ) ;
#219 = FACE_OUTER_BOUND ( 'NONE', #296, .T. ) ;
#220 = DIRECTION ( 'NONE',  ( 1.000000000000000000, -6.223015277861141707E-61, 7.888609052210118054E-31 ) ) ;
#221 = ORIENTED_EDGE ( 'NONE', *, *, #427, .T. ) ;
#222 = DIRECTION ( 'NONE',  ( 3.491481338843133750E-15, 1.000000000000000000, 2.366582715663035416E-30 ) ) ;
#223 = EDGE_CURVE ( 'NONE', #533, #90, #355, .T. ) ;
#224 = DIRECTION ( 'NONE',  ( -1.000000000000000000, 0.000000000000000000, 0.000000000000000000 ) ) ;
#225 = CYLINDRICAL_SURFACE ( 'NONE', #491, 2.550000000000052225 ) ;
#226 = CARTESIAN_POINT ( 'NONE',  ( -599.1643969440688124, 904.3151604516438056, 0.000000000000000000 ) ) ;
#227 = AXIS2_PLACEMENT_3D ( 'NONE', #462, #112, #256 ) ;
#228 = AXIS2_PLACEMENT_3D ( 'NONE', #507, #418, #467 ) ;
#229 = CARTESIAN_POINT ( 'NONE',  ( -576.6881233438613208, 924.2151604516609495, 0.000000000000000000 ) ) ;
#230 = EDGE_CURVE ( 'NONE', #57, #173, #161, .T. ) ;
#231 = DIRECTION ( 'NONE',  ( 7.888609052210118054E-31, 7.888609052210118054E-31, -1.000000000000000000 ) ) ;
#232 = ORIENTED_EDGE ( 'NONE', *, *, #195, .F. ) ;
#233 = ORIENTED_EDGE ( 'NONE', *, *, #357, .T. ) ;
#234 = AXIS2_PLACEMENT_3D ( 'NONE', #346, #397, #95 ) ;
#235 = DIRECTION ( 'NONE',  ( -1.000000000000000000, 0.000000000000000000, 0.000000000000000000 ) ) ;
#236 = CIRCLE ( 'NONE', #593, 10.00000000000000000 ) ;
#237 = ORIENTED_EDGE ( 'NONE', *, *, #247, .T. ) ;
#238 = CARTESIAN_POINT ( 'NONE',  ( -599.4803299049344787, 884.3151604516438056, 0.000000000000000000 ) ) ;
#239 = EDGE_CURVE ( 'NONE', #348, #213, #539, .T. ) ;
#240 = ORIENTED_EDGE ( 'NONE', *, *, #214, .F. ) ;
#241 = CARTESIAN_POINT ( 'NONE',  ( -731.6881233438607524, 839.2106594387055338, -9.700000000000041922 ) ) ;
#242 = CARTESIAN_POINT ( 'NONE',  ( -586.6836223309054503, 924.2151604516609495, 0.2999999999999583000 ) ) ;
#243 = VERTEX_POINT ( 'NONE', #216 ) ;
#244 = DIRECTION ( 'NONE',  ( 7.888609052210118054E-31, 7.888609052210118054E-31, -1.000000000000000000 ) ) ;
#245 = CARTESIAN_POINT ( 'NONE',  ( -641.6881233438613208, 894.2151604516614043, 0.2999999999999583000 ) ) ;
#246 = ORIENTED_EDGE ( 'NONE', *, *, #247, .F. ) ;
#247 = EDGE_CURVE ( 'NONE', #450, #582, #179, .T. ) ;
#248 = CARTESIAN_POINT ( 'NONE',  ( -773.8959167827705414, 884.3151604516434645, -9.700000000000041922 ) ) ;
#249 = VERTEX_POINT ( 'NONE', #21 ) ;
#250 = EDGE_CURVE ( 'NONE', #348, #387, #415, .T. ) ;
#251 = FACE_OUTER_BOUND ( 'NONE', #60, .T. ) ;
#252 = ORIENTED_EDGE ( 'NONE', *, *, #623, .F. ) ;
#253 = APPLICATION_CONTEXT ( 'automotive_design' ) ;
#254 = FACE_BOUND ( 'NONE', #555, .T. ) ;
#255 = AXIS2_PLACEMENT_3D ( 'NONE', #226, #182, #516 ) ;
#256 = DIRECTION ( 'NONE',  ( 0.000000000000000000, 0.000000000000000000, 1.000000000000000000 ) ) ;
#257 = DIRECTION ( 'NONE',  ( 1.000000000000000000, -1.110722962469605239E-14, 0.000000000000000000 ) ) ;
#258 = EDGE_CURVE ( 'NONE', #540, #533, #138, .T. ) ;
#259 = FACE_BOUND ( 'NONE', #93, .T. ) ;
#260 = EDGE_LOOP ( 'NONE', ( #265, #501, #606, #494 ) ) ;
#261 = DIRECTION ( 'NONE',  ( 7.888609052210118054E-31, 7.888609052210118054E-31, -1.000000000000000000 ) ) ;
#262 = DIRECTION ( 'NONE',  ( -1.000000000000000000, 0.000000000000000000, 0.000000000000000000 ) ) ;
#263 = VECTOR ( 'NONE', #148, 1000.000000000000000 ) ;
#264 = TOROIDAL_SURFACE ( 'NONE', #7, 55.00450101295582783, 10.00000000000000000 ) ;
#265 = ORIENTED_EDGE ( 'NONE', *, *, #561, .F. ) ;
#266 = EDGE_CURVE ( 'NONE', #213, #485, #350, .T. ) ;
#267 = CARTESIAN_POINT ( 'NONE',  ( -599.4803299049344787, 884.3151604516438056, -9.700000000000041922 ) ) ;
#268 = LINE ( 'NONE', #77, #27 ) ;
#269 = ORIENTED_EDGE ( 'NONE', *, *, #202, .T. ) ;
#270 = DIRECTION ( 'NONE',  ( 7.888609052210118054E-31, 7.888609052210118054E-31, -1.000000000000000000 ) ) ;
#271 = EDGE_LOOP ( 'NONE', ( #15, #252, #303, #333 ) ) ;
#272 = DIRECTION ( 'NONE',  ( -1.000000000000000000, 0.000000000000000000, 0.000000000000000000 ) ) ;
#273 = ORIENTED_EDGE ( 'NONE', *, *, #11, .F. ) ;
#274 = CIRCLE ( 'NONE', #206, 2.550000000000052225 ) ;
#275 = DIRECTION ( 'NONE',  ( -1.000000000000000000, 0.000000000000000000, 0.000000000000000000 ) ) ;
#276 = ORIENTED_EDGE ( 'NONE', *, *, #84, .F. ) ;
#277 = CARTESIAN_POINT ( 'NONE',  ( -774.2118497436363214, 904.3151604516434645, -9.700000000000041922 ) ) ;
#278 = VERTEX_POINT ( 'NONE', #122 ) ;
#279 = CARTESIAN_POINT ( 'NONE',  ( -776.4459167827706096, 884.3151604516434645, 7.212489168102933057 ) ) ;
#280 = PRODUCT_DEFINITION_CONTEXT ( 'detailed design', #253, 'design' ) ;
#281 = PRESENTATION_LAYER_ASSIGNMENT (  '', '', ( #35 ) ) ;
#282 = ORIENTED_EDGE ( 'NONE', *, *, #331, .F. ) ;
#283 = AXIS2_PLACEMENT_3D ( 'NONE', #130, #373, #338 ) ;
#284 = AXIS2_PLACEMENT_3D ( 'NONE', #417, #208, #552 ) ;
#285 = LINE ( 'NONE', #98, #319 ) ;
#286 = EDGE_CURVE ( 'NONE', #485, #492, #581, .T. ) ;
#287 = DIRECTION ( 'NONE',  ( 0.000000000000000000, 0.000000000000000000, 1.000000000000000000 ) ) ;
#288 = ORIENTED_EDGE ( 'NONE', *, *, #536, .T. ) ;
#289 = CARTESIAN_POINT ( 'NONE',  ( -586.6836223309054503, 924.2151604516609495, -9.700000000000041922 ) ) ;
#290 = DIRECTION ( 'NONE',  ( -1.000000000000000000, 0.000000000000000000, 0.000000000000000000 ) ) ;
#291 = APPLICATION_PROTOCOL_DEFINITION ( 'draft international standard', 'automotive_design', 1998, #253 ) ;
#292 = VERTEX_POINT ( 'NONE', #553 ) ;
#293 = CARTESIAN_POINT ( 'NONE',  ( -773.8959167827705414, 884.3151604516434645, 7.212489168102933057 ) ) ;
#294 = DIRECTION ( 'NONE',  ( 7.888609052210118054E-31, 7.888609052210118054E-31, -1.000000000000000000 ) ) ;
#295 = EDGE_CURVE ( 'NONE', #571, #345, #118, .T. ) ;
#296 = EDGE_LOOP ( 'NONE', ( #474, #479, #53, #32 ) ) ;
#297 = DIRECTION ( 'NONE',  ( 0.000000000000000000, 1.000000000000000000, 0.000000000000000000 ) ) ;
#298 = AXIS2_PLACEMENT_3D ( 'NONE', #176, #602, #559 ) ;
#299 = ORIENTED_EDGE ( 'NONE', *, *, #31, .F. ) ;
#300 = PRODUCT_DEFINITION ( 'UNKNOWN', '', #524, #280 ) ;
#301 = CARTESIAN_POINT ( 'NONE',  ( -731.6881233438613208, 924.2151604516615180, 0.000000000000000000 ) ) ;
#302 = DIRECTION ( 'NONE',  ( 7.888609052210118054E-31, 7.888609052210118054E-31, -1.000000000000000000 ) ) ;
#303 = ORIENTED_EDGE ( 'NONE', *, *, #357, .F. ) ;
#304 = DIRECTION ( 'NONE',  ( -1.000000000000000000, 0.000000000000000000, 0.000000000000000000 ) ) ;
#305 = FACE_BOUND ( 'NONE', #362, .T. ) ;
#306 = ORIENTED_EDGE ( 'NONE', *, *, #55, .T. ) ;
#307 = CIRCLE ( 'NONE', #349, 2.550000000000052225 ) ;
#308 = AXIS2_PLACEMENT_3D ( 'NONE', #200, #156, #437 ) ;
#309 = DIRECTION ( 'NONE',  ( 7.888609052210118054E-31, 7.888609052210118054E-31, -1.000000000000000000 ) ) ;
#310 = AXIS2_PLACEMENT_3D ( 'NONE', #218, #123, #49 ) ;
#311 = ADVANCED_FACE ( 'NONE', ( #557 ), #116, .T. ) ;
#312 = CARTESIAN_POINT ( 'NONE',  ( -771.3459167827705869, 884.3151604516434645, 7.212489168102933057 ) ) ;
#313 = DIRECTION ( 'NONE',  ( 7.888609052210118054E-31, 7.888609052210118054E-31, -1.000000000000000000 ) ) ;
#314 = CARTESIAN_POINT ( 'NONE',  ( -776.7618497436363896, 904.3151604516434645, 0.000000000000000000 ) ) ;
#315 = DIRECTION ( 'NONE',  ( 7.888609052210118054E-31, 7.888609052210118054E-31, -1.000000000000000000 ) ) ;
#316 = DIRECTION ( 'NONE',  ( -1.000000000000000000, 0.000000000000000000, 0.000000000000000000 ) ) ;
#317 = ADVANCED_FACE ( 'NONE', ( #209, #23, #514, #124, #65 ), #360, .T. ) ;
#318 = CARTESIAN_POINT ( 'NONE',  ( -744.6881233438608660, 925.3151604516613133, -9.700000000000041922 ) ) ;
#319 = VECTOR ( 'NONE', #354, 1000.000000000000000 ) ;
#320 = CLOSED_SHELL ( 'NONE', ( #344, #526, #476, #518, #317, #375, #311, #76, #598, #457, #96, #587, #162, #131, #487, #605, #471, #152 ) ) ;
#321 = AXIS2_PLACEMENT_3D ( 'NONE', #454, #16, #592 ) ;
#322 = DIRECTION ( 'NONE',  ( -0.000000000000000000, 1.000000000000000000, -0.000000000000000000 ) ) ;
#323 = AXIS2_PLACEMENT_3D ( 'NONE', #318, #62, #222 ) ;
#324 = AXIS2_PLACEMENT_3D ( 'NONE', #480, #332, #275 ) ;
#325 = DIRECTION ( 'NONE',  ( -7.888609052210118054E-31, -7.888609052210118054E-31, 1.000000000000000000 ) ) ;
#326 = ORIENTED_EDGE ( 'NONE', *, *, #108, .T. ) ;
#327 = PRODUCT ( '4, BackPiece', '4, BackPiece', '', ( #203 ) ) ;
#328 = SURFACE_STYLE_USAGE ( .BOTH. , #470 ) ;
#329 = ORIENTED_EDGE ( 'NONE', *, *, #336, .T. ) ;
#330 = CARTESIAN_POINT ( 'NONE',  ( -641.6881233438613208, 894.2151604516614043, 0.000000000000000000 ) ) ;
#331 = EDGE_CURVE ( 'NONE', #243, #48, #59, .T. ) ;
#332 = DIRECTION ( 'NONE',  ( -0.000000000000000000, 0.000000000000000000, -1.000000000000000000 ) ) ;
#333 = ORIENTED_EDGE ( 'NONE', *, *, #508, .F. ) ;
#334 =( NAMED_UNIT ( * ) SI_UNIT ( $, .STERADIAN. ) SOLID_ANGLE_UNIT ( ) );
#335 = ORIENTED_EDGE ( 'NONE', *, *, #184, .F. ) ;
#336 = EDGE_CURVE ( 'NONE', #520, #48, #400, .T. ) ;
#337 = CYLINDRICAL_SURFACE ( 'NONE', #513, 2.550000000000052225 ) ;
#338 = DIRECTION ( 'NONE',  ( 0.000000000000000000, 0.000000000000000000, -1.000000000000000000 ) ) ;
#339 = ORIENTED_EDGE ( 'NONE', *, *, #561, .T. ) ;
#340 = DIRECTION ( 'NONE',  ( 7.888609052210118054E-31, 7.888609052210118054E-31, -1.000000000000000000 ) ) ;
#341 = DIRECTION ( 'NONE',  ( -1.000000000000000000, 0.000000000000000000, 0.000000000000000000 ) ) ;
#342 = VERTEX_POINT ( 'NONE', #455 ) ;
#343 = CARTESIAN_POINT ( 'NONE',  ( -599.4803299049344787, 884.3151604516438056, -9.700000000000041922 ) ) ;
#344 = ADVANCED_FACE ( 'NONE', ( #14 ), #420, .F. ) ;
#345 = VERTEX_POINT ( 'NONE', #607 ) ;
#346 = CARTESIAN_POINT ( 'NONE',  ( -641.6881233438613208, 894.2151604516614043, -9.700000000000041922 ) ) ;
#347 = SHAPE_DEFINITION_REPRESENTATION ( #133, #190 ) ;
#348 = VERTEX_POINT ( 'NONE', #499 ) ;
#349 = AXIS2_PLACEMENT_3D ( 'NONE', #129, #231, #613 ) ;
#350 = CIRCLE ( 'NONE', #570, 55.00450101295584204 ) ;
#351 = CARTESIAN_POINT ( 'NONE',  ( -602.0303299049344332, 884.3151604516438056, 0.000000000000000000 ) ) ;
#352 = AXIS2_PLACEMENT_3D ( 'NONE', #378, #618, #272 ) ;
#353 = EDGE_LOOP ( 'NONE', ( #547, #269, #517, #382 ) ) ;
#354 = DIRECTION ( 'NONE',  ( 6.223015277861141707E-61, -1.000000000000000000, -7.888609052210118054E-31 ) ) ;
#355 = LINE ( 'NONE', #586, #430 ) ;
#356 = ORIENTED_EDGE ( 'NONE', *, *, #536, .F. ) ;
#357 = EDGE_CURVE ( 'NONE', #210, #198, #515, .T. ) ;
#358 = DIRECTION ( 'NONE',  ( 0.000000000000000000, 0.000000000000000000, 1.000000000000000000 ) ) ;
#359 = PLANE ( 'NONE',  #324 ) ;
#360 = PLANE ( 'NONE',  #323 ) ;
#361 = CIRCLE ( 'NONE', #371, 10.00000000000000000 ) ;
#362 = EDGE_LOOP ( 'NONE', ( #560, #419 ) ) ;
#363 = DIRECTION ( 'NONE',  ( 1.000000000000000000, 0.000000000000000000, 0.000000000000000000 ) ) ;
#364 = CARTESIAN_POINT ( 'NONE',  ( -731.6881233438613208, 924.2151604516615180, 0.2999999999999583000 ) ) ;
#365 = EDGE_CURVE ( 'NONE', #292, #12, #236, .T. ) ;
#366 = LINE ( 'NONE', #522, #551 ) ;
#367 = EDGE_LOOP ( 'NONE', ( #389, #624, #431, #157 ) ) ;
#368 = CARTESIAN_POINT ( 'NONE',  ( -641.6881233438613208, 924.2151604516615180, -9.700000000000041922 ) ) ;
#369 = ORIENTED_EDGE ( 'NONE', *, *, #403, .F. ) ;
#370 = CARTESIAN_POINT ( 'NONE',  ( -786.6926243568171913, 924.2151604516610632, 0.2999999999999583000 ) ) ;
#371 = AXIS2_PLACEMENT_3D ( 'NONE', #159, #629, #542 ) ;
#372 = CARTESIAN_POINT ( 'NONE',  ( -771.6618497436362532, 904.3151604516434645, 0.000000000000000000 ) ) ;
#373 = DIRECTION ( 'NONE',  ( 0.000000000000000000, -1.000000000000000000, 0.000000000000000000 ) ) ;
#374 = ORIENTED_EDGE ( 'NONE', *, *, #214, .T. ) ;
#375 = ADVANCED_FACE ( 'NONE', ( #305, #54, #259, #254, #10 ), #359, .F. ) ;
#376 = DIRECTION ( 'NONE',  ( -1.000000000000000000, 0.000000000000000000, 0.000000000000000000 ) ) ;
#377 = ORIENTED_EDGE ( 'NONE', *, *, #84, .T. ) ;
#378 = CARTESIAN_POINT ( 'NONE',  ( -773.8959167827705414, 884.3151604516434645, 0.000000000000000000 ) ) ;
#379 = VECTOR ( 'NONE', #386, 1000.000000000000000 ) ;
#380 = VECTOR ( 'NONE', #261, 1000.000000000000000 ) ;
#381 = AXIS2_PLACEMENT_3D ( 'NONE', #248, #193, #150 ) ;
#382 = ORIENTED_EDGE ( 'NONE', *, *, #394, .F. ) ;
#383 = DIRECTION ( 'NONE',  ( -1.000000000000000000, 0.000000000000000000, 0.000000000000000000 ) ) ;
#384 = EDGE_CURVE ( 'NONE', #450, #50, #33, .T. ) ;
#385 = EDGE_LOOP ( 'NONE', ( #107, #86, #26, #614, #488, #81, #567, #621 ) ) ;
#386 = DIRECTION ( 'NONE',  ( -1.000000000000000000, 6.223015277861141707E-61, -7.888609052210118054E-31 ) ) ;
#387 = VERTEX_POINT ( 'NONE', #187 ) ;
#388 = FACE_OUTER_BOUND ( 'NONE', #78, .T. ) ;
#389 = ORIENTED_EDGE ( 'NONE', *, *, #202, .F. ) ;
#390 = CARTESIAN_POINT ( 'NONE',  ( -576.6881233438613208, 924.2151604516609495, 0.000000000000000000 ) ) ;
#391 = DIRECTION ( 'NONE',  ( -1.000000000000000000, 0.000000000000000000, 0.000000000000000000 ) ) ;
#392 = ORIENTED_EDGE ( 'NONE', *, *, #20, .F. ) ;
#393 = LINE ( 'NONE', #241, #379 ) ;
#394 = EDGE_CURVE ( 'NONE', #563, #126, #519, .T. ) ;
#395 = DIRECTION ( 'NONE',  ( 7.888609052210118054E-31, 7.888609052210118054E-31, -1.000000000000000000 ) ) ;
#396 = ORIENTED_EDGE ( 'NONE', *, *, #184, .T. ) ;
#397 = DIRECTION ( 'NONE',  ( 7.888609052210118054E-31, 7.888609052210118054E-31, -1.000000000000000000 ) ) ;
#398 = AXIS2_PLACEMENT_3D ( 'NONE', #181, #608, #224 ) ;
#399 = CYLINDRICAL_SURFACE ( 'NONE', #321, 2.550000000000052225 ) ;
#400 = CIRCLE ( 'NONE', #127, 2.549999999999941203 ) ;
#401 = DIRECTION ( 'NONE',  ( 7.888609052210118054E-31, 7.888609052210118054E-31, -1.000000000000000000 ) ) ;
#402 = AXIS2_PLACEMENT_3D ( 'NONE', #404, #465, #596 ) ;
#403 = EDGE_CURVE ( 'NONE', #582, #450, #40, .T. ) ;
#404 = CARTESIAN_POINT ( 'NONE',  ( -599.4803299049344787, 884.3151604516438056, 7.212489168102933057 ) ) ;
#405 = ORIENTED_EDGE ( 'NONE', *, *, #239, .F. ) ;
#406 = DIRECTION ( 'NONE',  ( 7.888609052210118054E-31, 7.888609052210118054E-31, -1.000000000000000000 ) ) ;
#407 = CARTESIAN_POINT ( 'NONE',  ( -596.9303299049345242, 884.3151604516438056, 7.212489168102933057 ) ) ;
#408 = ORIENTED_EDGE ( 'NONE', *, *, #411, .F. ) ;
#409 = CIRCLE ( 'NONE', #137, 2.550000000000052225 ) ;
#410 = DIRECTION ( 'NONE',  ( -1.000000000000000000, 0.000000000000000000, 0.000000000000000000 ) ) ;
#411 = EDGE_CURVE ( 'NONE', #345, #249, #70, .T. ) ;
#412 = VECTOR ( 'NONE', #510, 1000.000000000000000 ) ;
#413 = CARTESIAN_POINT ( 'NONE',  ( -601.7143969440687670, 904.3151604516438056, 7.212489168102933057 ) ) ;
#414 = CIRCLE ( 'NONE', #451, 2.549999999999941203 ) ;
#415 = CIRCLE ( 'NONE', #527, 10.00000000000000888 ) ;
#416 = ORIENTED_EDGE ( 'NONE', *, *, #178, .F. ) ;
#417 = CARTESIAN_POINT ( 'NONE',  ( -641.6881233438617755, 839.2106594387055338, 0.2999999999999583000 ) ) ;
#418 = DIRECTION ( 'NONE',  ( 0.000000000000000000, 0.000000000000000000, 1.000000000000000000 ) ) ;
#419 = ORIENTED_EDGE ( 'NONE', *, *, #142, .F. ) ;
#420 = CYLINDRICAL_SURFACE ( 'NONE', #402, 2.549999999999941203 ) ;
#421 = CARTESIAN_POINT ( 'NONE',  ( -776.4459167827706096, 884.3151604516434645, -9.700000000000041922 ) ) ;
#422 = DIRECTION ( 'NONE',  ( 1.000000000000000000, -6.223015277861141707E-61, 7.888609052210118054E-31 ) ) ;
#423 = CARTESIAN_POINT ( 'NONE',  ( -796.6881233438613208, 924.2151604516609495, 0.000000000000000000 ) ) ;
#424 = EDGE_CURVE ( 'NONE', #126, #154, #147, .T. ) ;
#425 = LINE ( 'NONE', #423, #440 ) ;
#426 = ORIENTED_EDGE ( 'NONE', *, *, #508, .T. ) ;
#427 = EDGE_CURVE ( 'NONE', #90, #12, #500, .T. ) ;
#428 = AXIS2_PLACEMENT_3D ( 'NONE', #301, #46, #196 ) ;
#429 = VECTOR ( 'NONE', #401, 1000.000000000000000 ) ;
#430 = VECTOR ( 'NONE', #199, 1000.000000000000000 ) ;
#431 = ORIENTED_EDGE ( 'NONE', *, *, #394, .T. ) ;
#432 = AXIS2_PLACEMENT_3D ( 'NONE', #136, #270, #235 ) ;
#433 = VERTEX_POINT ( 'NONE', #523 ) ;
#434 = CYLINDRICAL_SURFACE ( 'NONE', #104, 2.549999999999941203 ) ;
#435 = EDGE_LOOP ( 'NONE', ( #233, #575, #207, #299 ) ) ;
#436 = CARTESIAN_POINT ( 'NONE',  ( -796.6881233438613208, 924.2151604516609495, 0.000000000000000000 ) ) ;
#437 = DIRECTION ( 'NONE',  ( 1.000000000000000000, 0.000000000000000000, 0.000000000000000000 ) ) ;
#438 = AXIS2_PLACEMENT_3D ( 'NONE', #506, #358, #304 ) ;
#439 = ORIENTED_EDGE ( 'NONE', *, *, #178, .T. ) ;
#440 = VECTOR ( 'NONE', #145, 1000.000000000000000 ) ;
#441 = EDGE_CURVE ( 'NONE', #66, #563, #409, .T. ) ;
#442 = VECTOR ( 'NONE', #220, 1000.000000000000000 ) ;
#443 = DIRECTION ( 'NONE',  ( -7.888609052210118054E-31, -7.888609052210118054E-31, 1.000000000000000000 ) ) ;
#444 = MANIFOLD_SOLID_BREP ( 'Cut-Extrude2', #320 ) ;
#445 = ORIENTED_EDGE ( 'NONE', *, *, #55, .F. ) ;
#446 = CARTESIAN_POINT ( 'NONE',  ( -641.6881233438613208, 924.2151604516615180, 0.000000000000000000 ) ) ;
#447 = CARTESIAN_POINT ( 'NONE',  ( -771.6618497436362532, 904.3151604516434645, 7.212489168102933057 ) ) ;
#448 = EDGE_CURVE ( 'NONE', #50, #433, #307, .T. ) ;
#449 = APPLICATION_PROTOCOL_DEFINITION ( 'draft international standard', 'automotive_design', 1998, #477 ) ;
#450 = VERTEX_POINT ( 'NONE', #473 ) ;
#451 = AXIS2_PLACEMENT_3D ( 'NONE', #238, #287, #3 ) ;
#452 = AXIS2_PLACEMENT_3D ( 'NONE', #19, #363, #458 ) ;
#453 = DIRECTION ( 'NONE',  ( 1.000000000000000000, 1.110223024625155594E-14, 0.000000000000000000 ) ) ;
#454 = CARTESIAN_POINT ( 'NONE',  ( -773.8959167827705414, 884.3151604516434645, 7.212489168102933057 ) ) ;
#455 = CARTESIAN_POINT ( 'NONE',  ( -596.6143969440687442, 904.3151604516438056, 0.000000000000000000 ) ) ;
#456 = ORIENTED_EDGE ( 'NONE', *, *, #230, .F. ) ;
#457 = ADVANCED_FACE ( 'NONE', ( #528 ), #67, .T. ) ;
#458 = DIRECTION ( 'NONE',  ( 0.000000000000000000, 0.000000000000000000, -1.000000000000000000 ) ) ;
#459 = CARTESIAN_POINT ( 'NONE',  ( -731.6881233438608660, 979.2196614646173884, 0.2999999999999583000 ) ) ;
#460 = ORIENTED_EDGE ( 'NONE', *, *, #258, .F. ) ;
#461 = AXIS2_PLACEMENT_3D ( 'NONE', #330, #568, #180 ) ;
#462 = CARTESIAN_POINT ( 'NONE',  ( -641.6881233438617755, 979.2196614646173884, 0.2999999999999583000 ) ) ;
#463 = AXIS2_PLACEMENT_3D ( 'NONE', #446, #583, #341 ) ;
#464 = CIRCLE ( 'NONE', #438, 2.550000000000052225 ) ;
#465 = DIRECTION ( 'NONE',  ( 7.888609052210118054E-31, 7.888609052210118054E-31, -1.000000000000000000 ) ) ;
#466 = ORIENTED_EDGE ( 'NONE', *, *, #295, .T. ) ;
#467 = DIRECTION ( 'NONE',  ( -1.000000000000000000, 0.000000000000000000, 0.000000000000000000 ) ) ;
#468 = ORIENTED_EDGE ( 'NONE', *, *, #142, .T. ) ;
#469 = EDGE_LOOP ( 'NONE', ( #505, #167 ) ) ;
#470 = SURFACE_SIDE_STYLE ('',( #564 ) ) ;
#471 = ADVANCED_FACE ( 'NONE', ( #25 ), #225, .F. ) ;
#472 = ORIENTED_EDGE ( 'NONE', *, *, #266, .F. ) ;
#473 = CARTESIAN_POINT ( 'NONE',  ( -776.4459167827706096, 884.3151604516434645, 0.000000000000000000 ) ) ;
#474 = ORIENTED_EDGE ( 'NONE', *, *, #615, .T. ) ;
#475 = FILL_AREA_STYLE_COLOUR ( '', #617 ) ;
#476 = ADVANCED_FACE ( 'NONE', ( #183 ), #201, .F. ) ;
#477 = APPLICATION_CONTEXT ( 'automotive_design' ) ;
#478 = DIRECTION ( 'NONE',  ( -1.000000000000000000, 0.000000000000000000, 0.000000000000000000 ) ) ;
#479 = ORIENTED_EDGE ( 'NONE', *, *, #495, .F. ) ;
#480 = CARTESIAN_POINT ( 'NONE',  ( -641.6881233438613208, 924.2151604516615180, 0.000000000000000000 ) ) ;
#481 = CIRCLE ( 'NONE', #284, 10.00000000000000000 ) ;
#482 = CIRCLE ( 'NONE', #255, 2.550000000000052225 ) ;
#483 = ORIENTED_EDGE ( 'NONE', *, *, #31, .T. ) ;
#484 = DIRECTION ( 'NONE',  ( 7.888609052210118054E-31, 7.888609052210118054E-31, -1.000000000000000000 ) ) ;
#485 = VERTEX_POINT ( 'NONE', #289 ) ;
#486 = DIRECTION ( 'NONE',  ( 1.000000000000000000, -6.223015277861141707E-61, 7.888609052210118054E-31 ) ) ;
#487 = ADVANCED_FACE ( 'NONE', ( #94 ), #158, .F. ) ;
#488 = ORIENTED_EDGE ( 'NONE', *, *, #1, .T. ) ;
#489 = CARTESIAN_POINT ( 'NONE',  ( -599.1643969440688124, 904.3151604516438056, 7.212489168102933057 ) ) ;
#490 = CARTESIAN_POINT ( 'NONE',  ( -641.6881233438617755, 829.2151604516614043, 0.000000000000000000 ) ) ;
#491 = AXIS2_PLACEMENT_3D ( 'NONE', #521, #616, #478 ) ;
#492 = VERTEX_POINT ( 'NONE', #390 ) ;
#493 = CARTESIAN_POINT ( 'NONE',  ( -786.6926243568171913, 894.2151604516619727, -9.700000000000041922 ) ) ;
#494 = ORIENTED_EDGE ( 'NONE', *, *, #448, .T. ) ;
#495 = EDGE_CURVE ( 'NONE', #278, #57, #393, .T. ) ;
#496 = FACE_OUTER_BOUND ( 'NONE', #353, .T. ) ;
#497 = DIRECTION ( 'NONE',  ( -7.888609052210118054E-31, -7.888609052210118054E-31, 1.000000000000000000 ) ) ;
#498 = PRODUCT_RELATED_PRODUCT_CATEGORY ( 'part', '', ( #327 ) ) ;
#499 = CARTESIAN_POINT ( 'NONE',  ( -731.6881233438607524, 979.2196614646173884, -9.700000000000041922 ) ) ;
#500 = CIRCLE ( 'NONE', #461, 64.99999999999994316 ) ;
#501 = ORIENTED_EDGE ( 'NONE', *, *, #403, .T. ) ;
#502 = CIRCLE ( 'NONE', #381, 2.550000000000052225 ) ;
#503 = DIRECTION ( 'NONE',  ( -1.000000000000000000, 0.000000000000000000, 0.000000000000000000 ) ) ;
#504 = UNCERTAINTY_MEASURE_WITH_UNIT (LENGTH_MEASURE( 1.000000000000000082E-05 ), #211, 'distance_accuracy_value', 'NONE');
#505 = ORIENTED_EDGE ( 'NONE', *, *, #424, .F. ) ;
#506 = CARTESIAN_POINT ( 'NONE',  ( -774.2118497436363214, 904.3151604516434645, 0.000000000000000000 ) ) ;
#507 = CARTESIAN_POINT ( 'NONE',  ( -773.8959167827705414, 884.3151604516434645, 0.000000000000000000 ) ) ;
#508 = EDGE_CURVE ( 'NONE', #387, #210, #100, .T. ) ;
#509 = ORIENTED_EDGE ( 'NONE', *, *, #615, .F. ) ;
#510 = DIRECTION ( 'NONE',  ( 7.888609052210118054E-31, 7.888609052210118054E-31, -1.000000000000000000 ) ) ;
#511 = DIRECTION ( 'NONE',  ( 1.000000000000000000, -6.223015277861141707E-61, 7.888609052210118054E-31 ) ) ;
#512 = CYLINDRICAL_SURFACE ( 'NONE', #283, 10.00000000000000000 ) ;
#513 = AXIS2_PLACEMENT_3D ( 'NONE', #192, #244, #577 ) ;
#514 = FACE_BOUND ( 'NONE', #626, .T. ) ;
#515 = CIRCLE ( 'NONE', #163, 10.00000000000000888 ) ;
#516 = DIRECTION ( 'NONE',  ( -1.000000000000000000, 0.000000000000000000, 0.000000000000000000 ) ) ;
#517 = ORIENTED_EDGE ( 'NONE', *, *, #139, .T. ) ;
#518 = ADVANCED_FACE ( 'NONE', ( #51 ), #573, .F. ) ;
#519 = LINE ( 'NONE', #80, #620 ) ;
#520 = VERTEX_POINT ( 'NONE', #91 ) ;
#521 = CARTESIAN_POINT ( 'NONE',  ( -774.2118497436363214, 904.3151604516434645, 7.212489168102933057 ) ) ;
#522 = CARTESIAN_POINT ( 'NONE',  ( -602.0303299049344332, 884.3151604516438056, 7.212489168102933057 ) ) ;
#523 = CARTESIAN_POINT ( 'NONE',  ( -771.3459167827705869, 884.3151604516434645, -9.700000000000041922 ) ) ;
#524 = PRODUCT_DEFINITION_FORMATION_WITH_SPECIFIED_SOURCE ( 'ANY', '', #327, .NOT_KNOWN. ) ;
#525 = CIRCLE ( 'NONE', #56, 2.550000000000052225 ) ;
#526 = ADVANCED_FACE ( 'NONE', ( #496 ), #337, .F. ) ;
#527 = AXIS2_PLACEMENT_3D ( 'NONE', #459, #257, #604 ) ;
#528 = FACE_OUTER_BOUND ( 'NONE', #538, .T. ) ;
#529 = EDGE_LOOP ( 'NONE', ( #186, #588, #396, #191 ) ) ;
#530 = ORIENTED_EDGE ( 'NONE', *, *, #38, .T. ) ;
#531 = CARTESIAN_POINT ( 'NONE',  ( -731.6881233438607524, 829.2151604516614043, 0.000000000000000000 ) ) ;
#532 =( GEOMETRIC_REPRESENTATION_CONTEXT ( 3 ) GLOBAL_UNCERTAINTY_ASSIGNED_CONTEXT ( ( #114 ) ) GLOBAL_UNIT_ASSIGNED_CONTEXT ( ( #28, #189, #334 ) ) REPRESENTATION_CONTEXT ( 'NONE', 'WORKASPACE' ) );
#533 = VERTEX_POINT ( 'NONE', #531 ) ;
#534 = ORIENTED_EDGE ( 'NONE', *, *, #195, .T. ) ;
#535 = DIRECTION ( 'NONE',  ( 7.888609052210118054E-31, 7.888609052210118054E-31, -1.000000000000000000 ) ) ;
#536 = EDGE_CURVE ( 'NONE', #111, #387, #585, .T. ) ;
#537 = CARTESIAN_POINT ( 'NONE',  ( -786.6926243568171913, 924.2151604516610632, -9.700000000000041922 ) ) ;
#538 = EDGE_LOOP ( 'NONE', ( #326, #456, #509, #460 ) ) ;
#539 = LINE ( 'NONE', #550, #442 ) ;
#540 = VERTEX_POINT ( 'NONE', #541 ) ;
#541 = CARTESIAN_POINT ( 'NONE',  ( -796.6881233438613208, 894.2151604516619727, 0.000000000000000000 ) ) ;
#542 = DIRECTION ( 'NONE',  ( 0.000000000000000000, 0.000000000000000000, -1.000000000000000000 ) ) ;
#543 = CIRCLE ( 'NONE', #398, 2.549999999999941203 ) ;
#544 = EDGE_CURVE ( 'NONE', #485, #292, #285, .T. ) ;
#545 = AXIS2_PLACEMENT_3D ( 'NONE', #13, #215, #165 ) ;
#546 = DIRECTION ( 'NONE',  ( 0.000000000000000000, 0.000000000000000000, 1.000000000000000000 ) ) ;
#547 = ORIENTED_EDGE ( 'NONE', *, *, #566, .T. ) ;
#548 = CARTESIAN_POINT ( 'NONE',  ( -601.7143969440687670, 904.3151604516438056, 0.000000000000000000 ) ) ;
#549 = ORIENTED_EDGE ( 'NONE', *, *, #365, .F. ) ;
#550 = CARTESIAN_POINT ( 'NONE',  ( -641.6881233438617755, 979.2196614646173884, -9.700000000000041922 ) ) ;
#551 = VECTOR ( 'NONE', #177, 1000.000000000000000 ) ;
#552 = DIRECTION ( 'NONE',  ( 0.000000000000000000, 0.000000000000000000, -1.000000000000000000 ) ) ;
#553 = CARTESIAN_POINT ( 'NONE',  ( -586.6836223309054503, 894.2151604516619727, -9.700000000000041922 ) ) ;
#554 = EDGE_CURVE ( 'NONE', #90, #278, #481, .T. ) ;
#555 = EDGE_LOOP ( 'NONE', ( #8, #392 ) ) ;
#556 = FACE_OUTER_BOUND ( 'NONE', #151, .T. ) ;
#557 = FACE_OUTER_BOUND ( 'NONE', #271, .T. ) ;
#558 = CARTESIAN_POINT ( 'NONE',  ( -576.6881233438613208, 894.2151604516619727, 0.000000000000000000 ) ) ;
#559 = DIRECTION ( 'NONE',  ( 1.000000000000000000, -1.110223024625155594E-14, 0.000000000000000000 ) ) ;
#560 = ORIENTED_EDGE ( 'NONE', *, *, #38, .F. ) ;
#561 = EDGE_CURVE ( 'NONE', #582, #433, #117, .T. ) ;
#562 = AXIS2_PLACEMENT_3D ( 'NONE', #144, #340, #2 ) ;
#563 = VERTEX_POINT ( 'NONE', #314 ) ;
#564 = SURFACE_STYLE_FILL_AREA ( #611 ) ;
#565 = EDGE_LOOP ( 'NONE', ( #115, #24, #466, #45 ) ) ;
#566 = EDGE_CURVE ( 'NONE', #563, #66, #464, .T. ) ;
#567 = ORIENTED_EDGE ( 'NONE', *, *, #239, .T. ) ;
#568 = DIRECTION ( 'NONE',  ( 0.000000000000000000, 0.000000000000000000, 1.000000000000000000 ) ) ;
#569 = CIRCLE ( 'NONE', #579, 55.00450101295584204 ) ;
#570 = AXIS2_PLACEMENT_3D ( 'NONE', #368, #315, #503 ) ;
#571 = VERTEX_POINT ( 'NONE', #548 ) ;
#572 = ORIENTED_EDGE ( 'NONE', *, *, #384, .F. ) ;
#573 = CYLINDRICAL_SURFACE ( 'NONE', #562, 2.550000000000052225 ) ;
#574 = CARTESIAN_POINT ( 'NONE',  ( -731.6881233438608660, 839.2106594387055338, -9.700000000000041922 ) ) ;
#575 = ORIENTED_EDGE ( 'NONE', *, *, #1, .F. ) ;
#576 = EDGE_CURVE ( 'NONE', #342, #249, #61, .T. ) ;
#577 = DIRECTION ( 'NONE',  ( -1.000000000000000000, 0.000000000000000000, 0.000000000000000000 ) ) ;
#578 = FACE_OUTER_BOUND ( 'NONE', #89, .T. ) ;
#579 = AXIS2_PLACEMENT_3D ( 'NONE', #109, #406, #410 ) ;
#580 = CIRCLE ( 'NONE', #463, 64.99999999999994316 ) ;
#581 = CIRCLE ( 'NONE', #298, 10.00000000000000888 ) ;
#582 = VERTEX_POINT ( 'NONE', #169 ) ;
#583 = DIRECTION ( 'NONE',  ( 0.000000000000000000, 0.000000000000000000, 1.000000000000000000 ) ) ;
#584 = ORIENTED_EDGE ( 'NONE', *, *, #566, .F. ) ;
#585 = LINE ( 'NONE', #87, #263 ) ;
#586 = CARTESIAN_POINT ( 'NONE',  ( -641.6881233438617755, 829.2151604516614043, 0.000000000000000000 ) ) ;
#587 = ADVANCED_FACE ( 'NONE', ( #219 ), #58, .T. ) ;
#588 = ORIENTED_EDGE ( 'NONE', *, *, #576, .T. ) ;
#589 = DIRECTION ( 'NONE',  ( -1.000000000000000000, 0.000000000000000000, 0.000000000000000000 ) ) ;
#590 = DIRECTION ( 'NONE',  ( -1.000000000000000000, 0.000000000000000000, 0.000000000000000000 ) ) ;
#591 = CIRCLE ( 'NONE', #160, 2.549999999999941203 ) ;
#592 = DIRECTION ( 'NONE',  ( -1.000000000000000000, 0.000000000000000000, 0.000000000000000000 ) ) ;
#593 = AXIS2_PLACEMENT_3D ( 'NONE', #212, #168, #599 ) ;
#594 = CARTESIAN_POINT ( 'NONE',  ( -641.6881233438616619, 979.2196614646173884, -9.700000000000041922 ) ) ;
#595 = EDGE_LOOP ( 'NONE', ( #72, #240 ) ) ;
#596 = DIRECTION ( 'NONE',  ( -1.000000000000000000, 0.000000000000000000, 0.000000000000000000 ) ) ;
#597 = ORIENTED_EDGE ( 'NONE', *, *, #223, .T. ) ;
#598 = ADVANCED_FACE ( 'NONE', ( #556 ), #121, .T. ) ;
#599 = DIRECTION ( 'NONE',  ( 0.000000000000000000, 0.000000000000000000, -1.000000000000000000 ) ) ;
#600 = AXIS2_PLACEMENT_3D ( 'NONE', #293, #627, #589 ) ;
#601 =( NAMED_UNIT ( * ) SI_UNIT ( $, .STERADIAN. ) SOLID_ANGLE_UNIT ( ) );
#602 = DIRECTION ( 'NONE',  ( -1.110722962469605239E-14, -1.000000000000000000, -0.000000000000000000 ) ) ;
#603 = FACE_OUTER_BOUND ( 'NONE', #435, .T. ) ;
#604 = DIRECTION ( 'NONE',  ( 1.110223024625155594E-14, 1.000000000000000000, 0.000000000000000000 ) ) ;
#605 = ADVANCED_FACE ( 'NONE', ( #204 ), #399, .F. ) ;
#606 = ORIENTED_EDGE ( 'NONE', *, *, #384, .T. ) ;
#607 = CARTESIAN_POINT ( 'NONE',  ( -601.7143969440687670, 904.3151604516438056, -9.700000000000041922 ) ) ;
#608 = DIRECTION ( 'NONE',  ( 0.000000000000000000, 0.000000000000000000, 1.000000000000000000 ) ) ;
#609 =( GEOMETRIC_REPRESENTATION_CONTEXT ( 3 ) GLOBAL_UNCERTAINTY_ASSIGNED_CONTEXT ( ( #504 ) ) GLOBAL_UNIT_ASSIGNED_CONTEXT ( ( #211, #9, #601 ) ) REPRESENTATION_CONTEXT ( 'NONE', 'WORKASPACE' ) );
#610 = CIRCLE ( 'NONE', #234, 55.00450101295584204 ) ;
#611 = FILL_AREA_STYLE ('',( #475 ) ) ;
#612 = CARTESIAN_POINT ( 'NONE',  ( -599.1643969440688124, 904.3151604516438056, 0.000000000000000000 ) ) ;
#613 = DIRECTION ( 'NONE',  ( -1.000000000000000000, 0.000000000000000000, 0.000000000000000000 ) ) ;
#614 = ORIENTED_EDGE ( 'NONE', *, *, #230, .T. ) ;
#615 = EDGE_CURVE ( 'NONE', #533, #57, #103, .T. ) ;
#616 = DIRECTION ( 'NONE',  ( 7.888609052210118054E-31, 7.888609052210118054E-31, -1.000000000000000000 ) ) ;
#617 = COLOUR_RGB ( '',0.7921568627450980005, 0.8196078431372548767, 0.9333333333333333481 ) ;
#618 = DIRECTION ( 'NONE',  ( 0.000000000000000000, 0.000000000000000000, 1.000000000000000000 ) ) ;
#619 = AXIS2_PLACEMENT_3D ( 'NONE', #174, #17, #170 ) ;
#620 = VECTOR ( 'NONE', #74, 1000.000000000000000 ) ;
#621 = ORIENTED_EDGE ( 'NONE', *, *, #266, .T. ) ;
#622 = PRESENTATION_STYLE_ASSIGNMENT (( #328 ) ) ;
#623 = EDGE_CURVE ( 'NONE', #198, #348, #569, .T. ) ;
#624 = ORIENTED_EDGE ( 'NONE', *, *, #441, .T. ) ;
#625 = CYLINDRICAL_SURFACE ( 'NONE', #149, 10.00000000000000000 ) ;
#626 = EDGE_LOOP ( 'NONE', ( #97, #416 ) ) ;
#627 = DIRECTION ( 'NONE',  ( 7.888609052210118054E-31, 7.888609052210118054E-31, -1.000000000000000000 ) ) ;
#628 = AXIS2_PLACEMENT_3D ( 'NONE', #82, #325, #422 ) ;
#629 = DIRECTION ( 'NONE',  ( 0.000000000000000000, -1.000000000000000000, -0.000000000000000000 ) ) ;
#630 = CIRCLE ( 'NONE', #310, 10.00000000000000000 ) ;
#631 = ORIENTED_EDGE ( 'NONE', *, *, #544, .F. ) ;
ENDSEC;
END-ISO-10303-21;
